<?xml version="1.0" standalone="no"?><!DOCTYPE svg PUBLIC "-//W3C//DTD SVG 1.1//EN" "http://www.w3.org/Graphics/SVG/1.1/DTD/svg11.dtd"><svg t="1611301223825" class="icon" viewBox="0 0 1024 1024" version="1.1" xmlns="http://www.w3.org/2000/svg" p-id="37494" xmlns:xlink="http://www.w3.org/1999/xlink" width="200" height="200"><defs><style type="text/css"></style></defs><path d="M518.0416 657.1008c-80.0256 0-145.1008-65.0752-145.1008-145.1008s65.0752-145.1008 145.1008-145.1008 145.1008 65.0752 145.1008 145.1008-65.0752 145.1008-145.1008 145.1008z m0-228.7616c-46.1312 0-83.6608 37.5296-83.6608 83.6608s37.5296 83.6608 83.6608 83.6608 83.6608-37.5296 83.6608-83.6608-37.5296-83.6608-83.6608-83.6608z" fill="#FF623E" p-id="37495"></path><path d="M518.0416 961.4336c-36.864 0-73.6768-4.5568-109.4144-13.4656a30.6944 30.6944 0 0 1-23.2448-30.4128c0-0.768 0.0512-1.536 0.1024-2.3552-0.3584-52.5824-43.264-95.2832-95.9488-95.2832-17.8688 0-35.4304 5.0688-50.7392 14.6944a30.67392 30.67392 0 0 1-37.9904-4.3008c-56.4224-56.2176-96.9728-126.5152-117.1968-203.2128-3.6352-13.824 2.7136-28.3648 15.36-35.0208 15.9744-8.448 29.184-21.0944 38.1952-36.608a95.1808 95.1808 0 0 0 9.6768-72.7552 95.3344 95.3344 0 0 0-44.0832-58.0096c-0.768-0.3584-1.4336-0.7168-2.0992-1.0752a30.7968 30.7968 0 0 1-14.592-35.2768 450.1504 450.1504 0 0 1 114.7904-194.6112 30.6688 30.6688 0 0 1 37.9904-4.2496c15.3088 9.5744 32.8704 14.6432 50.7392 14.6432 52.6848 0 95.5904-42.7008 95.9488-95.2832-0.0512-0.8192-0.1024-1.5872-0.1024-2.3552a30.75072 30.75072 0 0 1 23.2448-30.4128c71.4752-17.8688 147.3536-17.92 218.88 0 13.8752 3.4816 23.552 16.0768 23.2448 30.4128 0 0.768-0.0512 1.536-0.1024 2.304 0.3584 52.5824 43.264 95.2832 95.9488 95.2832 17.8688 0 35.4304-5.0688 50.7392-14.6432a30.67392 30.67392 0 0 1 37.9904 4.3008 449.3312 449.3312 0 0 1 117.1968 203.2128c3.6352 13.824-2.7136 28.3136-15.36 35.0208-15.9744 8.448-29.184 21.0944-38.144 36.608-26.368 45.568-10.9568 104.0896 34.3552 130.7648 0.7168 0.3584 1.3312 0.6656 1.9456 1.024a30.7456 30.7456 0 0 1 14.7456 35.3792 450.1504 450.1504 0 0 1-114.7904 194.6112 30.6688 30.6688 0 0 1-37.9904 4.2496 95.67744 95.67744 0 0 0-50.7392-14.6432c-52.6848 0-95.5904 42.7008-95.9488 95.2832 0.0512 0.8192 0.1024 1.5872 0.1024 2.304 0.256 14.336-9.3696 26.9312-23.2448 30.4128a452.91008 452.91008 0 0 1-109.4656 13.4656z m-72.7552-68.3008a390.90176 390.90176 0 0 0 145.5616 0c11.0592-76.032 76.6976-134.656 155.7504-134.656 20.8896 0 41.4208 4.1984 60.6208 12.2368A388.7104 388.7104 0 0 0 884.3264 640c-60.2624-47.6672-78.0288-133.7856-38.4512-202.1888 10.4448-18.0736 24.4224-33.792 41.0112-46.3872a388.2496 388.2496 0 0 0-79.6672-138.0864 156.55936 156.55936 0 0 1-60.6208 12.2368c-79.0528 0-144.6912-58.624-155.7504-134.656a390.90176 390.90176 0 0 0-145.5616 0C434.2272 206.9504 368.64 265.5232 289.5872 265.5232c-20.8896 0-41.472-4.1984-60.6208-12.2368A389.84704 389.84704 0 0 0 151.808 384c60.2112 47.616 78.08 133.7856 38.4512 202.24a156.86656 156.86656 0 0 1-41.0112 46.3872 388.03456 388.03456 0 0 0 79.6672 138.0352c19.1488-8.0384 39.7312-12.2368 60.6208-12.2368 79.104 0.0512 144.6912 58.624 155.7504 134.7072z m488.7552-293.4784zM102.144 424.3968c0.0512 0 0.1024 0.0512 0.1024 0.0512s-0.0512-0.0512-0.1024-0.0512z" fill="#303135" p-id="37496"></path></svg>